<svg enable-background="new 0 0 24 24" height="512" viewBox="0 0 24 24" width="512" xmlns="http://www.w3.org/2000/svg"><path d="m21.793 9.611-1.723-.219c-.142-.437-.317-.859-.522-1.26l1.064-1.37c.431-.555.38-1.337-.111-1.815l-1.443-1.443c-.482-.497-1.264-.547-1.82-.116l-1.369 1.064c-.401-.205-.822-.379-1.26-.521l-.219-1.72c-.084-.691-.669-1.211-1.363-1.211h-2.054c-.694 0-1.28.52-1.362 1.207l-.219 1.723c-.438.142-.859.317-1.26.521l-1.37-1.064c-.554-.43-1.337-.38-1.815.111l-1.443 1.445c-.497.482-.547 1.264-.116 1.82l1.064 1.37c-.205.401-.38.823-.522 1.26l-1.72.218c-.69.083-1.21.668-1.21 1.362v2.054c0 .694.52 1.28 1.207 1.362l1.723.219c.142.437.317.859.522 1.26l-1.064 1.37c-.431.555-.38 1.337.111 1.815l1.444 1.444c.482.496 1.264.546 1.819.116l1.37-1.064c.401.205.823.38 1.26.522l.219 1.72c.083.689.668 1.209 1.362 1.209h2.054c.694 0 1.28-.52 1.362-1.207l.219-1.723c.437-.142.859-.317 1.26-.522l1.37 1.064c.555.431 1.337.38 1.815-.111l1.443-1.443c.497-.482.547-1.264.116-1.82l-1.064-1.37c.205-.401.38-.823.522-1.26l1.72-.219c.69-.083 1.21-.669 1.21-1.362v-2.054c0-.694-.52-1.279-1.207-1.362z" fill="#90a4ae"/><circle cx="12" cy="12" fill="#fff" r="5"/><path d="m12.87 24h-1.74c-.886 0-1.619-.637-1.743-1.516l-.257-1.955c-.392-.13-.771-.287-1.137-.469l-1.556 1.195c-.691.536-1.684.47-2.308-.155l-1.229-1.23c-.624-.623-.69-1.616-.153-2.309l1.194-1.554c-.183-.366-.339-.746-.469-1.137l-1.949-.256c-.886-.125-1.523-.858-1.523-1.744v-1.74c0-.886.637-1.619 1.516-1.743l1.955-.257c.13-.392.287-.771.469-1.137l-1.195-1.556c-.535-.691-.469-1.684.155-2.308l1.23-1.229c.623-.624 1.616-.691 2.31-.153l1.553 1.193c.365-.182.745-.339 1.137-.469l.256-1.949c.125-.885.858-1.522 1.744-1.522h1.74c.886 0 1.619.637 1.743 1.516l.257 1.956c.392.13.771.287 1.137.469l1.556-1.195c.691-.535 1.685-.47 2.308.155l1.229 1.229c.624.623.69 1.616.153 2.309l-1.193 1.554c.183.366.339.746.469 1.137l1.949.256c.885.125 1.522.858 1.522 1.744v1.74c0 .886-.637 1.619-1.516 1.743l-1.956.257c-.13.392-.287.771-.469 1.137l1.195 1.556c.535.691.469 1.684-.155 2.308l-1.229 1.229c-.624.623-1.616.688-2.309.153l-1.554-1.194c-.366.183-.746.339-1.137.469l-.256 1.949c-.125.886-.858 1.523-1.744 1.523zm-4.95-5.58c.129 0 .258.033.375.1.531.306 1.106.543 1.71.706.292.079.509.326.549.626l.32 2.43c.018.125.124.218.256.218h1.74c.133 0 .239-.092.257-.225l.319-2.423c.04-.301.256-.548.549-.626.604-.163 1.18-.4 1.71-.706.263-.151.59-.13.832.055l1.94 1.49c.104.08.238.069.332-.025l1.23-1.23c.094-.094.105-.23.027-.331l-1.492-1.942c-.185-.241-.207-.569-.055-.832.306-.531.543-1.106.706-1.71.079-.292.326-.509.626-.549l2.43-.32c.125-.018.218-.124.218-.256v-1.74c0-.133-.092-.239-.225-.257l-2.423-.319c-.301-.04-.548-.256-.626-.549-.163-.604-.4-1.18-.706-1.71-.151-.263-.129-.591.055-.832l1.49-1.94c.08-.103.068-.238-.025-.332l-1.23-1.23c-.095-.094-.23-.106-.33-.028l-1.942 1.492c-.242.185-.569.205-.832.055-.531-.306-1.106-.543-1.71-.706-.292-.079-.509-.326-.549-.626l-.32-2.43c-.017-.126-.123-.218-.256-.218h-1.74c-.133 0-.239.092-.257.225l-.319 2.423c-.04.301-.256.548-.549.626-.604.163-1.18.4-1.71.706-.264.15-.59.129-.832-.055l-1.94-1.49c-.102-.08-.237-.069-.332.025l-1.231 1.23c-.094.095-.105.23-.027.331l1.492 1.942c.184.241.206.569.055.831-.306.531-.543 1.106-.706 1.71-.079.292-.326.509-.626.549l-2.43.32c-.126.018-.218.124-.218.257v1.74c0 .133.092.239.225.257l2.423.319c.301.04.548.256.626.549.163.604.4 1.18.706 1.71.151.263.129.591-.055.832l-1.49 1.94c-.08.103-.068.238.025.332l1.23 1.23c.093.094.229.105.331.027l1.942-1.492c.134-.102.295-.154.457-.154z"/><path d="m12 17c-2.757 0-5-2.243-5-5s2.243-5 5-5 5 2.243 5 5-2.243 5-5 5zm0-8.5c-1.93 0-3.5 1.57-3.5 3.5s1.57 3.5 3.5 3.5 3.5-1.57 3.5-3.5-1.57-3.5-3.5-3.5z"/></svg>